<svg width="1352" height="1350" xmlns="http://www.w3.org/2000/svg" xmlns:xlink="http://www.w3.org/1999/xlink" overflow="hidden"><defs><clipPath id="clip0"><rect x="1854" y="353" width="1352" height="1350"/></clipPath></defs><g clip-path="url(#clip0)" transform="translate(-1854 -353)"><path d="M2186.88 951.879 2182.88 974.561 1854 916.702 1858 894.021ZM2187.73 1099.72 1859.54 1161.4 1855.28 1138.76 2183.47 1077.09ZM2234.23 836.794 2222.41 856.568 1935.68 685.557 1947.5 665.783ZM2236.41 1214.23 1951.67 1388.52 1939.62 1368.88 2224.36 1194.59ZM2319.61 745.543 2301.57 759.884 2093.62 498.859 2111.66 484.518ZM2322.81 1304.49 2117.84 1567.85 2099.64 1553.72 2304.61 1290.35ZM2431.42 690.474 2409.46 697.487 2307.76 379.735 2329.72 372.721ZM2435.25 1358.27 2337.24 1677.17 2315.2 1670.41 2413.21 1351.51ZM2581.09 1701.54 2558.09 1703 2536.96 1370.07 2559.96 1368.61ZM2659.96 357.13 2600.08 685.319 2577.4 681.189 2637.28 353ZM2818.15 1638.06 2797.17 1647.6 2658.85 1343.96 2679.83 1334.42ZM2887.82 447.885 2714.93 733.288 2695.2 721.364 2868.1 435.961ZM3016.74 1494.95 3000.49 1511.28 2763.65 1276.1 2779.9 1259.77ZM3068.28 612.942 2805.75 819.119 2791.51 801.013 3054.03 594.837ZM3151.95 1291.07 3142.52 1312.09 2837.76 1175.71 2847.19 1154.69ZM3178.91 831.508 2860.23 931.183 2853.34 909.205 3172.03 809.529ZM3206 1052.05 3204.67 1075.05 2871.29 1055.77 2872.62 1032.78Z" fill="#851515" fill-rule="evenodd"/><path d="M2175 1032C2175 838.148 2332.15 681 2526 681 2719.85 681 2877 838.148 2877 1032 2877 1225.85 2719.85 1383 2526 1383 2332.15 1383 2175 1225.85 2175 1032Z" stroke="#851515" stroke-width="27.5" stroke-miterlimit="8" fill="none" fill-rule="evenodd"/><path d="M2658.31 1197.26 2793 1259.46 2774.2 1280.15C2710.67 1343.7 2622.91 1383 2525.97 1383 2429.04 1383 2341.27 1343.7 2277.75 1280.15L2274 1276.03 2314.06 1253.81C2339.56 1237.11 2375.69 1234.07 2401.19 1217.38L2411.1 1237.49C2490.08 1307.06 2445.81 1266.2 2495.04 1299.35L2533.29 1256.84 2574.02 1300.1 2666.81 1252.29 2658.31 1197.26ZM2437.65 1163.96 2443.59 1188.41C2459.21 1194.08 2444.03 1195.49 2468.16 1201.16L2503.8 1214.98 2531.7 1224.01 2532.31 1241.02 2498.88 1279.28 2491.69 1280.34 2431.76 1240.49 2416.39 1221.89 2415.42 1209.13 2418.25 1205.41 2415.42 1199.04 2416.95 1180.44 2437.65 1163.96ZM2665.64 1012.46 2657.31 1037.14 2658.67 1041.21 2654.42 1073.62 2654.32 1074.04 2656.6 1073.2 2667.22 1056.73 2668.82 1046.1C2668.64 1036.36 2668.46 1026.61 2668.29 1016.87L2665.64 1012.46ZM2483.3 953.084 2485.18 957.949 2477.67 957.949 2481.42 962.004 2460.77 960.382 2465.47 963.626 2447.64 960.382 2442.94 962.004 2437.31 978.224 2438.25 984.712 2455.14 978.224 2480.48 977.413 2494.43 987.562 2499.35 972.111 2505.71 954.498 2491.75 953.894 2483.3 953.084ZM2478.61 943.352 2495.5 946.596 2506.43 952.5 2506.96 951.043 2506.75 952.669 2510.52 954.705 2506.5 954.532C2506.45 954.904 2506.4 955.277 2506.35 955.65L2507.12 963.413 2507.55 963.02C2508.27 963.029 2508.92 963.832 2509.38 965.709 2509.74 968.853 2509.03 966.757 2509.38 969.901 2510.27 980.205 2509.56 990.509 2510.45 1000.81 2510.27 1003.78 2513.28 1011.99 2513.1 1014.96L2508.85 1023.34C2507.26 1025.75 2507.26 1029.23 2505.67 1031.64L2500.3 1034.66 2488.13 1044.4 2489.2 1059.28C2494.86 1056.8 2501.59 1056.44 2507.26 1053.96L2511.51 1050.24 2528.51 1047.58C2532.49 1047.05 2532.67 1050.86 2534.88 1050.77 2537.1 1050.68 2540.91 1045.99 2541.79 1047.05L2540.73 1053.43 2560.38 1055.56 2564.63 1045.46 2554.01 1038.02 2543.92 1023.67 2550.29 1020.48 2566.76 1038.55 2575.26 1053.43 2589.07 1063 2580.04 1067.78 2579.51 1070.97 2575.26 1078.41 2578.13 1102.33 2578.86 1102.97C2579.01 1103.32 2578.95 1103.63 2578.64 1103.87L2578.33 1103.96C2578.37 1104.3 2578.41 1104.64 2578.45 1104.98L2578.2 1104 2576.9 1104.37C2569.9 1105.08 2539.44 1100.3 2524.3 1100.12 2509.16 1099.95 2494.2 1103.13 2486.05 1103.31 2481.98 1103.4 2478.08 1102.4 2475.56 1101.09L2473.13 1099.11 2478.04 1111.89 2502.48 1111.89 2522.13 1117.73 2538.6 1111.35 2571.01 1116.67 2548.17 1116.67 2528.51 1126.23 2545.51 1122.51 2560.92 1123.58 2544.45 1127.83 2530.63 1136.86 2504.6 1132.08 2488.67 1115.07 2483.88 1120.92 2489.73 1139.52 2466.88 1108.7 2472.73 1098.07 2472.99 1098.75 2473.3 1096.93C2476.14 1094.54 2494.29 1089.58 2503.05 1088.96 2511.82 1088.34 2520.85 1092.95 2525.9 1093.21 2530.94 1093.48 2529.61 1090.29 2533.33 1090.56 2537.05 1090.82 2542.72 1093.92 2548.21 1094.81 2553.7 1095.69 2561.49 1094.28 2566.27 1095.87 2568.66 1096.67 2573.07 1098.62 2576 1100.46L2577.69 1101.94 2575.39 1092.69C2572.34 1078.54 2569.28 1060.21 2566.23 1050.24L2564.1 1059.28 2551.88 1065.65 2544.45 1065.12 2525.85 1061.93 2504.6 1065.65 2490.26 1063C2486.72 1061.93 2486.01 1053.34 2483.35 1052.37 2480.7 1051.39 2482.11 1057.42 2479.63 1058.74L2468.48 1067.25C2473.79 1056.8 2476.45 1044.22 2484.41 1035.89 2486.98 1034.48 2489.82 1034.12 2492.72 1034.03L2498.38 1033.86 2504.6 1020.72C2505.4 1013.65 2503.71 997.391 2502.88 985.983 2502.85 985.316 2502.83 984.649 2502.8 983.982L2500.61 991.165 2497.97 998.643 2495.18 997.35 2495.04 1000.29 2477.51 1013.04C2474.29 1012.73 2459.39 1012.42 2456.18 1012.1L2438.73 1005.25 2475.38 1008.79 2487.84 997.271 2466.72 997.632 2447.23 995.206 2461.48 984.878 2475.08 987.004 2481.98 989.522 2489.2 993.737 2493.13 991.664 2494.02 988.871 2477.63 983.09 2455.71 984.181 2439.06 991.787 2433.56 985.523 2425.11 982.279 2422.29 966.06 2434.5 952.272 2442 947.406 2465.47 944.163 2478.61 943.352ZM2595.45 938.646 2606.6 943.96 2612.45 954.057 2604.48 955.651 2605.01 960.434 2598.63 957.777 2591.2 957.245 2585.88 961.496 2577.92 957.245 2567.82 962.559 2572.07 956.714 2559.85 959.371 2554.54 967.342 2546.4 986.785 2566.87 973.805 2598.21 974.337 2614.68 987.622 2599.8 979.119 2573.77 977.525C2569.12 979.119 2559.1 985.197 2551.76 989.033L2549.75 989.961 2553.12 993.15 2558.84 989.793 2573.73 982.115 2592.56 981.992 2605.01 992.242 2588.13 993.874 2579.19 995.507C2575.47 994.793 2564.76 994.767 2557.55 994.397L2554.1 994.079 2562.78 1002.31 2583.01 1005.12 2605.45 999.471 2584.7 1011.45 2559.41 1008.64C2556.32 1003.71 2548.17 997.382 2545.08 992.459L2545.55 991.366 2545.31 989.406 2544.98 990.193 2542.85 957.777 2556.13 944.491 2557.73 949.806 2566.23 941.834 2574.2 939.709 2586.42 941.834 2595.45 938.646ZM2501.13 866.367 2456.08 882.327 2452.33 902.043 2447.63 899.226 2445.76 906.737 2438.25 903.92 2435.43 927.391 2412.91 946.167 2400.71 973.394C2400.39 997.803 2399.02 1013.71 2398.71 1038.12L2389.55 1028.53 2391.45 1031.64C2393.04 1038.37 2390.91 1054.14 2392.51 1060.87L2402.01 1081.77 2400.48 1046.52C2401.89 1056.62 2407.56 1053.96 2411.1 1058.74L2414.82 1050.77 2416.95 1058.21 2420.13 1052.37 2421.73 1063 2446.16 1081.06 2444.04 1082.13 2445.63 1087.44 2442.98 1087.44 2439.26 1118.26 2440.32 1138.46 2442.45 1132.61 2443.51 1136.86 2450.95 1154.93 2464.76 1167.15 2488.66 1176.19 2512.57 1181.5 2513.22 1181.82 2542.32 1180.97 2549.76 1176.19C2551.53 1173.35 2558.08 1172.64 2559.85 1169.81L2571.01 1155.99 2567.29 1167.15 2575.79 1156.52 2584.29 1148.55 2580.04 1158.65 2586.42 1149.08 2593.32 1145.36C2593.5 1151.74 2588.36 1154.4 2588.54 1160.78L2609.79 1151.21 2635.82 1101.79 2654.12 1039.67 2654.12 984.659C2648.37 975.521 2650.07 953.629 2644.32 944.491L2598.74 889.838 2596.86 912.37 2593.11 898.287 2588.42 909.553 2579.97 894.532 2581.85 918.003 2574.34 893.593 2565.89 908.614 2563.08 884.205C2562.76 894.532 2562.45 904.859 2562.14 915.186L2559.32 888.899 2555.57 903.92 2550.88 885.144 2550.88 904.859 2541.49 880.45 2538.67 901.104 2535.86 887.96C2535.55 896.097 2535.23 904.233 2534.92 912.37L2525.53 890.777 2519.9 900.165 2512.4 875.756 2508.64 882.327 2501.13 866.367ZM2513.95 788.6C2528.77 787.266 2543.29 788.369 2557.2 789.826 2571.11 791.282 2584.06 792.117 2597.41 797.337 2610.77 802.558 2623.1 811.136 2637.34 821.15 2651.57 831.164 2667.15 844.167 2674.32 868.758 2681.5 893.35 2684.31 937.561 2680.4 968.699L2667.45 1007.1 2675.72 1008.37 2684.76 1039.19 2669.35 1071.08 2653.94 1093.93 2650.02 1093.21 2641.13 1132.79C2634.23 1144.12 2637.95 1146.25 2631.04 1157.59L2630.87 1157.74 2654.42 1179.91 2654.42 1203.82 2660.79 1238.89 2601.29 1270.78 2571.54 1281.41 2537.01 1241.02 2551.88 1224.01 2603.31 1201.48 2633.17 1183.63 2633.17 1166.09 2619.85 1167.58C2615.77 1170.36 2611.34 1172.73 2606.6 1175.12 2597.13 1179.91 2586.3 1182.65 2574.2 1186.28 2562.09 1189.91 2550.84 1196.91 2533.97 1196.91 2517.1 1196.91 2504.47 1192.66 2489.73 1190.53 2476.89 1189.47 2466.8 1184.69 2458.38 1180.44 2449.97 1176.19 2443.33 1171.05 2439.26 1165.03L2429.16 1153.34 2411.63 1121.98 2402.13 1083.97 2391.98 1081.06 2381.88 1071.5 2375.51 1028.45 2382.44 1021.08 2377.24 1015.64 2365.04 945.228 2381.94 857.918C2400.24 831.631 2438.72 808.473 2468.28 797.833 2483.07 792.513 2499.13 789.935 2513.95 788.6Z" fill="#851515" fill-rule="evenodd"/><path d="M2492.45 1376.89 2472.88 1547.96 2455.18 1545.94 2474.77 1374.63ZM2354.26 1333.58 2364.15 1339.35 2369.96 1342.01 2290.66 1496.17 2274.81 1488.01ZM2619.51 1365.69 2661.92 1531.91 2644.65 1536.32 2602.31 1370.38 2603.31 1370.2ZM2256.74 1252.75 2258.53 1255.08 2268.7 1265.96 2138.63 1383 2126.71 1369.75ZM2734.29 1309.73 2832.55 1449.97 2817.96 1460.2 2719.72 1320 2726.32 1315.86ZM2194.62 1142.9 2201.05 1159.53 2036.66 1223.76 2030.17 1207.16ZM2821.61 1216.56 2963.24 1313.11 2953.2 1327.84 2811.43 1231.18 2819.97 1219.36ZM2175.62 1018.84 2175.16 1036.66 1997.55 1038.21 1997.39 1020.39ZM2869.23 1098.26 3036.98 1138.43 3032.83 1155.76 2865.2 1115.62ZM2032.85 834.343 2200.91 895.987 2200.08 897.8 2194.97 912.79 2026.71 851.073ZM3044.21 949.071 3046.46 966.75 2874.36 988.583 2874.05 984.363 2871.7 970.958ZM2132.09 672.697 2267.9 790.727 2256.1 804.088 2120.4 686.148ZM2983.72 769.463 2992.09 785.195 2837.41 867.505 2831.67 856.064 2829 851.797ZM2281.73 557.004 2367.29 715.521 2353.98 722.196 2351.49 723.761 2266.04 565.469ZM2863.92 623.111 2877.3 634.882 2760.51 767.656 2747.15 755.863ZM2462.9 501.569 2486.56 679.501 2482.28 679.821 2468.94 682.161 2445.23 503.919ZM2699.61 528.464 2716.3 534.701 2654 701.462 2637.13 695.707Z" fill="#851515" fill-rule="evenodd"/></g></svg>